<svg width="154" height="42" viewBox="0 0 154 42" fill="none" xmlns="http://www.w3.org/2000/svg">
<path d="M39.1154 20.3226C39.1154 30.719 30.6939 39.1452 20.3077 39.1452C9.92153 39.1452 1.5 30.719 1.5 20.3226C1.5 9.92612 9.92153 1.5 20.3077 1.5C30.6939 1.5 39.1154 9.92612 39.1154 20.3226Z" fill="white" stroke="url(#paint0_linear_16_33)" stroke-width="3"/>
<mask id="mask0_16_33" style="mask-type:alpha" maskUnits="userSpaceOnUse" x="5" y="12" width="30" height="18">
<path d="M7.44617 18.4258L7.44617 24.0258" stroke="black" stroke-width="3" stroke-linecap="round"/>
<path d="M29.1302 18.4258V24.0258" stroke="black" stroke-width="3" stroke-linecap="round"/>
<path d="M10.9436 18.4258V24.0258" stroke="black" stroke-width="3" stroke-linecap="round"/>
<path d="M32.6277 18.4258V24.0258" stroke="black" stroke-width="3" stroke-linecap="round"/>
<path d="M14.441 16.3258V26.1258" stroke="black" stroke-width="3" stroke-linecap="round"/>
<path d="M24.9333 16.3258V26.1258" stroke="black" stroke-width="3" stroke-linecap="round"/>
<path d="M17.9385 14.2258V28.2258" stroke="black" stroke-width="3" stroke-linecap="round"/>
<path d="M21.4359 14.2258V28.2258" stroke="black" stroke-width="3" stroke-linecap="round"/>
</mask>
<g mask="url(#mask0_16_33)">
<rect x="1.15076" y="12.8258" width="37.7723" height="16.8" fill="url(#paint1_linear_16_33)"/>
</g>
<path d="M53.364 27.126C52.536 27.126 51.792 26.982 51.132 26.694C50.484 26.394 49.974 25.986 49.602 25.47C49.23 24.942 49.038 24.336 49.026 23.652H50.772C50.832 24.24 51.072 24.738 51.492 25.146C51.924 25.542 52.548 25.74 53.364 25.74C54.144 25.74 54.756 25.548 55.2 25.164C55.656 24.768 55.884 24.264 55.884 23.652C55.884 23.172 55.752 22.782 55.488 22.482C55.224 22.182 54.894 21.954 54.498 21.798C54.102 21.642 53.568 21.474 52.896 21.294C52.068 21.078 51.402 20.862 50.898 20.646C50.406 20.43 49.98 20.094 49.62 19.638C49.272 19.17 49.098 18.546 49.098 17.766C49.098 17.082 49.272 16.476 49.62 15.948C49.968 15.42 50.454 15.012 51.078 14.724C51.714 14.436 52.44 14.292 53.256 14.292C54.432 14.292 55.392 14.586 56.136 15.174C56.892 15.762 57.318 16.542 57.414 17.514H55.614C55.554 17.034 55.302 16.614 54.858 16.254C54.414 15.882 53.826 15.696 53.094 15.696C52.41 15.696 51.852 15.876 51.42 16.236C50.988 16.584 50.772 17.076 50.772 17.712C50.772 18.168 50.898 18.54 51.15 18.828C51.414 19.116 51.732 19.338 52.104 19.494C52.488 19.638 53.022 19.806 53.706 19.998C54.534 20.226 55.2 20.454 55.704 20.682C56.208 20.898 56.64 21.24 57 21.708C57.36 22.164 57.54 22.788 57.54 23.58C57.54 24.192 57.378 24.768 57.054 25.308C56.73 25.848 56.25 26.286 55.614 26.622C54.978 26.958 54.228 27.126 53.364 27.126ZM64.2525 27.162C63.3285 27.162 62.4885 26.952 61.7325 26.532C60.9885 26.112 60.4005 25.518 59.9685 24.75C59.5485 23.97 59.3385 23.07 59.3385 22.05C59.3385 21.042 59.5545 20.154 59.9865 19.386C60.4305 18.606 61.0305 18.012 61.7865 17.604C62.5425 17.184 63.3885 16.974 64.3245 16.974C65.2605 16.974 66.1065 17.184 66.8625 17.604C67.6185 18.012 68.2125 18.6 68.6445 19.368C69.0885 20.136 69.3105 21.03 69.3105 22.05C69.3105 23.07 69.0825 23.97 68.6265 24.75C68.1825 25.518 67.5765 26.112 66.8085 26.532C66.0405 26.952 65.1885 27.162 64.2525 27.162ZM64.2525 25.722C64.8405 25.722 65.3925 25.584 65.9085 25.308C66.4245 25.032 66.8385 24.618 67.1505 24.066C67.4745 23.514 67.6365 22.842 67.6365 22.05C67.6365 21.258 67.4805 20.586 67.1685 20.034C66.8565 19.482 66.4485 19.074 65.9445 18.81C65.4405 18.534 64.8945 18.396 64.3065 18.396C63.7065 18.396 63.1545 18.534 62.6505 18.81C62.1585 19.074 61.7625 19.482 61.4625 20.034C61.1625 20.586 61.0125 21.258 61.0125 22.05C61.0125 22.854 61.1565 23.532 61.4445 24.084C61.7445 24.636 62.1405 25.05 62.6325 25.326C63.1245 25.59 63.6645 25.722 64.2525 25.722ZM80.2121 17.136V27H78.5741V25.542C78.2621 26.046 77.8241 26.442 77.2601 26.73C76.7081 27.006 76.0961 27.144 75.4241 27.144C74.6561 27.144 73.9661 26.988 73.3541 26.676C72.7421 26.352 72.2561 25.872 71.8961 25.236C71.5481 24.6 71.3741 23.826 71.3741 22.914V17.136H72.9941V22.698C72.9941 23.67 73.2401 24.42 73.7321 24.948C74.2241 25.464 74.8961 25.722 75.7481 25.722C76.6241 25.722 77.3141 25.452 77.8181 24.912C78.3221 24.372 78.5741 23.586 78.5741 22.554V17.136H80.2121ZM87.7838 16.956C88.9838 16.956 89.9558 17.322 90.6998 18.054C91.4438 18.774 91.8158 19.818 91.8158 21.186V27H90.1958V21.42C90.1958 20.436 89.9498 19.686 89.4578 19.17C88.9658 18.642 88.2938 18.378 87.4418 18.378C86.5778 18.378 85.8878 18.648 85.3718 19.188C84.8678 19.728 84.6158 20.514 84.6158 21.546V27H82.9778V17.136H84.6158V18.54C84.9398 18.036 85.3778 17.646 85.9298 17.37C86.4938 17.094 87.1118 16.956 87.7838 16.956ZM93.8795 22.032C93.8795 21.024 94.0835 20.142 94.4915 19.386C94.8995 18.618 95.4575 18.024 96.1655 17.604C96.8855 17.184 97.6895 16.974 98.5775 16.974C99.3455 16.974 100.059 17.154 100.719 17.514C101.379 17.862 101.883 18.324 102.231 18.9V13.68H103.887V27H102.231V25.146C101.907 25.734 101.427 26.22 100.791 26.604C100.155 26.976 99.4115 27.162 98.5595 27.162C97.6835 27.162 96.8855 26.946 96.1655 26.514C95.4575 26.082 94.8995 25.476 94.4915 24.696C94.0835 23.916 93.8795 23.028 93.8795 22.032ZM102.231 22.05C102.231 21.306 102.081 20.658 101.781 20.106C101.481 19.554 101.073 19.134 100.557 18.846C100.053 18.546 99.4955 18.396 98.8835 18.396C98.2715 18.396 97.7135 18.54 97.2095 18.828C96.7055 19.116 96.3035 19.536 96.0035 20.088C95.7035 20.64 95.5535 21.288 95.5535 22.032C95.5535 22.788 95.7035 23.448 96.0035 24.012C96.3035 24.564 96.7055 24.99 97.2095 25.29C97.7135 25.578 98.2715 25.722 98.8835 25.722C99.4955 25.722 100.053 25.578 100.557 25.29C101.073 24.99 101.481 24.564 101.781 24.012C102.081 23.448 102.231 22.794 102.231 22.05ZM119.796 17.136L116.718 27H115.026L112.65 19.17L110.274 27H108.582L105.486 17.136H107.16L109.428 25.416L111.876 17.136H113.55L115.944 25.434L118.176 17.136H119.796ZM120.809 22.032C120.809 21.024 121.013 20.142 121.421 19.386C121.829 18.618 122.387 18.024 123.095 17.604C123.815 17.184 124.613 16.974 125.489 16.974C126.353 16.974 127.103 17.16 127.739 17.532C128.375 17.904 128.849 18.372 129.161 18.936V17.136H130.817V27H129.161V25.164C128.837 25.74 128.351 26.22 127.703 26.604C127.067 26.976 126.323 27.162 125.471 27.162C124.595 27.162 123.803 26.946 123.095 26.514C122.387 26.082 121.829 25.476 121.421 24.696C121.013 23.916 120.809 23.028 120.809 22.032ZM129.161 22.05C129.161 21.306 129.011 20.658 128.711 20.106C128.411 19.554 128.003 19.134 127.487 18.846C126.983 18.546 126.425 18.396 125.813 18.396C125.201 18.396 124.643 18.54 124.139 18.828C123.635 19.116 123.233 19.536 122.933 20.088C122.633 20.64 122.483 21.288 122.483 22.032C122.483 22.788 122.633 23.448 122.933 24.012C123.233 24.564 123.635 24.99 124.139 25.29C124.643 25.578 125.201 25.722 125.813 25.722C126.425 25.722 126.983 25.578 127.487 25.29C128.003 24.99 128.411 24.564 128.711 24.012C129.011 23.448 129.161 22.794 129.161 22.05ZM137.257 25.488L140.317 17.136H142.063L138.193 27H136.285L132.415 17.136H134.179L137.257 25.488ZM152.675 21.69C152.675 22.002 152.657 22.332 152.621 22.68H144.737C144.797 23.652 145.127 24.414 145.727 24.966C146.339 25.506 147.077 25.776 147.941 25.776C148.649 25.776 149.237 25.614 149.705 25.29C150.185 24.954 150.521 24.51 150.713 23.958H152.477C152.213 24.906 151.685 25.68 150.893 26.28C150.101 26.868 149.117 27.162 147.941 27.162C147.005 27.162 146.165 26.952 145.421 26.532C144.689 26.112 144.113 25.518 143.693 24.75C143.273 23.97 143.063 23.07 143.063 22.05C143.063 21.03 143.267 20.136 143.675 19.368C144.083 18.6 144.653 18.012 145.385 17.604C146.129 17.184 146.981 16.974 147.941 16.974C148.877 16.974 149.705 17.178 150.425 17.586C151.145 17.994 151.697 18.558 152.081 19.278C152.477 19.986 152.675 20.79 152.675 21.69ZM150.983 21.348C150.983 20.724 150.845 20.19 150.569 19.746C150.293 19.29 149.915 18.948 149.435 18.72C148.967 18.48 148.445 18.36 147.869 18.36C147.041 18.36 146.333 18.624 145.745 19.152C145.169 19.68 144.839 20.412 144.755 21.348H150.983Z" fill="white"/>
<defs>
<linearGradient id="paint0_linear_16_33" x1="20.3077" y1="0" x2="20.3077" y2="40.6452" gradientUnits="userSpaceOnUse">
<stop stop-color="#1762A7"/>
<stop offset="1" stop-color="#BC3A80"/>
</linearGradient>
<linearGradient id="paint1_linear_16_33" x1="20.0369" y1="12.8258" x2="20.0369" y2="29.6258" gradientUnits="userSpaceOnUse">
<stop stop-color="#1762A7"/>
<stop offset="1" stop-color="#BC3A80"/>
</linearGradient>
</defs>
</svg>
